HIERARCHY
ROOT joint_Root
{
	OFFSET 0.0 0.0 0.0
	CHANNELS 6 Xposition Yposition Zposition Zrotation Xrotation Yrotation 
	JOINT Hips
	{
		OFFSET -17.1583 93.1646 452.98
		CHANNELS 6 Xposition Yposition Zposition Zrotation Xrotation Yrotation 
		JOINT Spine
		{
			OFFSET 15.7357 0.0 0.0
			CHANNELS 6 Xposition Yposition Zposition Zrotation Xrotation Yrotation 
			JOINT Chest
			{
				OFFSET 8.98455 -0.406207 0.0
				CHANNELS 6 Xposition Yposition Zposition Zrotation Xrotation Yrotation 
				JOINT Neck
				{
					OFFSET 16.3773 0.0 0.0
					CHANNELS 6 Xposition Yposition Zposition Zrotation Xrotation Yrotation 
					JOINT Head
					{
						OFFSET 6.45672 0.0 0.0
						CHANNELS 6 Xposition Yposition Zposition Zrotation Xrotation Yrotation 
						End Site
						{
							OFFSET 0.0 0.0 0.0
						}
					}
				}
				JOINT Shoulder_L
				{
					OFFSET 12.9942 -0.242716 4.98039
					CHANNELS 6 Xposition Yposition Zposition Zrotation Xrotation Yrotation 
					JOINT UpperArm_L
					{
						OFFSET 5.34809 0.0 0.0
						CHANNELS 6 Xposition Yposition Zposition Zrotation Xrotation Yrotation 
						JOINT LowerArm_L
						{
							OFFSET 24.3286 1.87007e-05 0.0
							CHANNELS 6 Xposition Yposition Zposition Zrotation Xrotation Yrotation 
							JOINT Hand_L
							{
								OFFSET 22.2916 0.0 0.0
								CHANNELS 6 Xposition Yposition Zposition Zrotation Xrotation Yrotation 
								End Site
								{
									OFFSET 0.0 0.0 0.0
								}
							}
						}
					}
				}
				JOINT Shoulder_R
				{
					OFFSET 12.9945 -0.242716 -4.98039
					CHANNELS 6 Xposition Yposition Zposition Zrotation Xrotation Yrotation 
					JOINT UpperArm_R
					{
						OFFSET -5.34813 0.0 0.0
						CHANNELS 6 Xposition Yposition Zposition Zrotation Xrotation Yrotation 
						JOINT LowerArm_R
						{
							OFFSET -24.3289 0.000322201 0.0
							CHANNELS 6 Xposition Yposition Zposition Zrotation Xrotation Yrotation 
							JOINT Hand_R
							{
								OFFSET -22.2915 -0.000108084 0.0
								CHANNELS 6 Xposition Yposition Zposition Zrotation Xrotation Yrotation 
								End Site
								{
									OFFSET 0.0 0.0 0.0
								}
							}
						}
					}
				}
			}
		}
		JOINT UpperLeg_L
		{
			OFFSET -2.19248 -6.46944 0.0
			CHANNELS 6 Xposition Yposition Zposition Zrotation Xrotation Yrotation 
			JOINT LowerLeg_L
			{
				OFFSET 39.0811 0.0 -1.23785e-05
				CHANNELS 6 Xposition Yposition Zposition Zrotation Xrotation Yrotation 
				JOINT Foot_L
				{
					OFFSET 40.9854 0.0 -1.26872e-05
					CHANNELS 6 Xposition Yposition Zposition Zrotation Xrotation Yrotation 
					JOINT Toes_L
					{
						OFFSET 11.7543 0.0 0.0
						CHANNELS 6 Xposition Yposition Zposition Zrotation Xrotation Yrotation 
						End Site
						{
							OFFSET 0.0 0.0 0.0
						}
					}
				}
			}
		}
		JOINT UpperLeg_R
		{
			OFFSET -2.19251 6.46944 0.0
			CHANNELS 6 Xposition Yposition Zposition Zrotation Xrotation Yrotation 
			JOINT LowerLeg_R
			{
				OFFSET -39.0811 -0.00228153 -0.0401928
				CHANNELS 6 Xposition Yposition Zposition Zrotation Xrotation Yrotation 
				JOINT Foot_R
				{
					OFFSET -40.9854 0.0 0.0
					CHANNELS 6 Xposition Yposition Zposition Zrotation Xrotation Yrotation 
					JOINT Toes_R
					{
						OFFSET -11.7543 0.0 0.0
						CHANNELS 6 Xposition Yposition Zposition Zrotation Xrotation Yrotation 
						End Site
						{
							OFFSET 0.0 0.0 0.0
						}
					}
				}
			}
		}
	}
}
MOTION
Frames:	6
Frame Time:	0.0333333
0.000000 0.000000 0.000000 0.000000 0.000000 -0.000000 -3.329980 91.634900 0.153551 85.389900 -2.001200 8.006900 15.735700 0.000005 -0.000001 92.336700 85.756600 -90.160800 8.984550 -0.406207 -0.000000 0.713332 0.212062 4.347030 16.377300 -0.000001 -0.000001 13.546200 0.890316 -13.787500 6.456720 -0.000001 -0.000000 -7.057140 1.903840 -22.293800 12.994200 -0.242716 4.980390 -93.586700 9.026650 -68.222700 5.348090 -0.000007 -0.000001 -73.434600 -4.180240 -11.709200 24.328600 0.000019 0.000005 34.638500 -37.538100 -131.411000 22.291600 -0.000001 0.000005 41.966600 5.161010 3.678500 12.994500 -0.242716 -4.980390 87.848400 5.772630 -69.518000 -5.348130 -0.000001 -0.000004 -69.146200 33.480600 -5.060070 -24.328900 0.000322 -0.000009 1.059870 3.704250 -15.994300 -22.291500 -0.000108 -0.000004 -2.586480 5.292600 0.279054 -2.192480 -6.469440 -0.000000 -174.983000 3.178470 0.990047 39.081100 -0.000007 -0.000012 0.393468 -0.724414 28.509700 40.985400 -0.000006 -0.000013 0.473778 2.388240 -77.103100 11.754300 -0.000000 0.000003 -0.000353 0.173362 -9.545010 -2.192510 6.469440 -0.000001 -171.472000 6.718870 -172.662000 -39.081100 -0.002282 -0.040193 0.178660 -0.557658 17.454000 -40.985400 0.000008 0.000006 6.021500 1.640020 -72.760400 -11.754300 -0.000006 -0.000006 -0.011659 0.283313 -5.059550
0.000000 0.000000 0.000000 0.000000 0.000000 -0.000000 -3.309960 91.644500 0.131819 85.401300 -1.855820 7.984680 15.735700 0.000005 -0.000001 91.561800 85.727100 -89.367800 8.984550 -0.406207 -0.000000 0.778547 0.099148 4.383960 16.377300 -0.000001 -0.000001 13.599800 0.872457 -13.751400 6.456720 -0.000001 -0.000000 -7.075760 1.875460 -22.270300 12.994200 -0.242716 4.980390 -93.598000 9.034620 -68.177500 5.348090 -0.000007 -0.000001 -73.341400 -4.226040 -11.738200 24.328600 0.000019 0.000005 34.836100 -37.519700 -131.189000 22.291600 -0.000001 0.000005 42.144600 5.160120 3.699880 12.994500 -0.242716 -4.980390 87.837200 5.795020 -69.493100 -5.348130 -0.000001 -0.000004 -69.202000 33.530800 -5.161540 -24.328900 0.000322 -0.000009 1.047650 3.630140 -16.125200 -22.291500 -0.000108 -0.000004 -2.564900 5.294270 0.232483 -2.192480 -6.469440 -0.000000 -175.011000 3.206010 0.938459 39.081100 -0.000007 -0.000012 0.395039 -0.728221 28.479500 40.985400 -0.000006 -0.000013 0.512109 2.453250 -77.041500 11.754300 -0.000000 0.000003 -0.000252 0.171759 -9.610140 -2.192510 6.469440 -0.000001 -171.506000 6.839910 -172.682000 -39.081100 -0.002282 -0.040193 0.178050 -0.557729 17.394900 -40.985400 0.000008 0.000006 6.006560 1.628220 -72.706700 -11.754300 -0.000006 -0.000006 -0.011507 0.282242 -5.103410
0.000000 0.000000 0.000000 0.000000 0.000000 -0.000000 -3.275230 91.661500 0.119374 85.440200 -1.779060 7.950220 15.735700 0.000005 -0.000001 91.501900 85.708300 -89.312600 8.984550 -0.406207 -0.000000 0.816394 0.092209 4.374420 16.377300 -0.000001 -0.000001 13.645900 0.788624 -13.661900 6.456720 -0.000001 -0.000000 -7.069630 1.843840 -22.185900 12.994200 -0.242716 4.980390 -93.584600 9.029110 -68.239500 5.348090 -0.000007 -0.000001 -73.255700 -4.338920 -11.796400 24.328600 0.000019 0.000005 34.325200 -37.101400 -131.459000 22.291600 -0.000001 0.000005 41.781800 5.157580 3.761280 12.994500 -0.242716 -4.980390 87.819900 5.833410 -69.466400 -5.348130 -0.000001 -0.000004 -69.283400 33.605300 -5.213840 -24.328900 0.000322 -0.000009 1.042130 3.587130 -16.226800 -22.291500 -0.000108 -0.000004 -2.657980 5.295800 0.189895 -2.192480 -6.469440 -0.000000 -175.053000 3.174230 0.927842 39.081100 -0.000007 -0.000012 0.391110 -0.723996 28.379400 40.985400 -0.000006 -0.000013 0.554251 2.536670 -76.976400 11.754300 -0.000000 0.000003 -0.000284 0.172277 -9.589080 -2.192510 6.469440 -0.000001 -171.553000 6.837010 -172.693000 -39.081100 -0.002282 -0.040193 0.177037 -0.557058 17.319700 -40.985400 0.000008 0.000006 5.974830 1.577760 -72.681300 -11.754300 -0.000006 -0.000006 -0.011569 0.282674 -5.085710
0.000000 0.000000 0.000000 0.000000 0.000000 -0.000000 -3.229250 91.680300 0.099897 85.495300 -1.691320 7.919870 15.735700 0.000005 -0.000001 91.524300 85.689800 -89.349500 8.984550 -0.406207 -0.000000 0.853177 0.098125 4.345440 16.377300 -0.000001 -0.000001 13.717700 0.730225 -13.558600 6.456720 -0.000001 -0.000000 -7.144390 1.753400 -22.022000 12.994200 -0.242716 4.980390 -93.580100 9.021170 -68.247400 5.348090 -0.000007 -0.000001 -73.186500 -4.332430 -11.922800 24.328600 0.000019 0.000005 34.203200 -36.886600 -131.448000 22.291600 -0.000001 0.000005 41.567700 5.149590 3.952850 12.994500 -0.242716 -4.980390 87.792800 5.887490 -69.406700 -5.348130 -0.000001 -0.000004 -69.296000 33.872600 -5.290500 -24.328900 0.000322 -0.000009 0.992392 3.404400 -16.278400 -22.291500 -0.000108 -0.000004 -2.510650 5.294400 0.229002 -2.192480 -6.469440 -0.000000 -175.129000 3.163180 0.915290 39.081100 -0.000007 -0.000012 0.385152 -0.716277 28.268500 40.985400 -0.000006 -0.000013 0.605602 2.601140 -76.885600 11.754300 -0.000000 0.000003 -0.000330 0.173012 -9.559230 -2.192510 6.469440 -0.000001 -171.694000 7.057520 -172.707000 -39.081100 -0.002282 -0.040193 0.175342 -0.553671 17.259300 -40.985400 0.000008 0.000006 5.959440 1.727780 -72.648600 -11.754300 -0.000006 -0.000006 -0.011074 0.279163 -5.229450
0.000000 0.000000 0.000000 0.000000 0.000000 -0.000000 -3.190200 91.694400 0.083305 85.505400 -1.612570 7.843520 15.735700 0.000005 -0.000001 91.518300 85.686400 -89.348900 8.984550 -0.406207 -0.000000 0.860059 0.097857 4.334630 16.377300 -0.000001 -0.000001 13.712700 0.715159 -13.392500 6.456720 -0.000001 -0.000000 -7.113330 1.649970 -21.864200 12.994200 -0.242716 4.980390 -93.593400 9.040470 -68.215700 5.348090 -0.000007 -0.000001 -73.067800 -4.414430 -12.039100 24.328600 0.000019 0.000005 34.600300 -36.946400 -131.065000 22.291600 -0.000001 0.000005 41.522700 5.151100 3.916810 12.994500 -0.242716 -4.980390 87.775000 5.935330 -69.407200 -5.348130 -0.000001 -0.000004 -69.307100 33.996100 -5.307750 -24.328900 0.000322 -0.000009 1.006930 3.440300 -16.340900 -22.291500 -0.000108 -0.000004 -2.540230 5.294280 0.232342 -2.192480 -6.469440 -0.000000 -175.161000 3.166780 0.842178 39.081100 -0.000007 -0.000012 0.388091 -0.723398 28.213800 40.985400 -0.000006 -0.000013 0.649869 2.660680 -76.877500 11.754300 -0.000000 0.000003 -0.000392 0.173977 -9.520040 -2.192510 6.469440 -0.000001 -171.747000 7.136270 -172.791000 -39.081100 -0.002282 -0.040193 0.172450 -0.545747 17.218100 -40.985400 0.000008 0.000006 5.938430 1.792810 -72.596800 -11.754300 -0.000006 -0.000006 -0.011156 0.279753 -5.205330
0.000000 0.000000 0.000000 0.000000 0.000000 -0.000000 -3.137770 91.705200 0.048704 85.489600 -1.608820 7.812440 15.735700 0.000005 -0.000001 91.755800 85.670400 -89.578700 8.984550 -0.406207 -0.000000 0.890241 0.134676 4.349780 16.377300 -0.000001 -0.000001 13.643600 0.680131 -13.187300 6.456720 -0.000001 -0.000000 -7.078380 1.616930 -21.636300 12.994200 -0.242716 4.980390 -93.612300 9.091580 -68.222100 5.348090 -0.000007 -0.000001 -72.982800 -4.716190 -12.027200 24.328600 0.000019 0.000005 34.073000 -36.338200 -131.221000 22.291600 -0.000001 0.000005 41.338800 5.159390 3.717580 12.994500 -0.242716 -4.980390 87.747600 6.005370 -69.396500 -5.348130 -0.000001 -0.000004 -69.273300 34.078100 -5.362100 -24.328900 0.000322 -0.000009 0.966792 3.311070 -16.303900 -22.291500 -0.000108 -0.000004 -2.395760 5.293000 0.267738 -2.192480 -6.469440 -0.000000 -175.175000 3.153450 0.792328 39.081100 -0.000007 -0.000012 0.390048 -0.727771 28.190000 40.985400 -0.000006 -0.000013 0.677795 2.648360 -76.802700 11.754300 -0.000000 0.000003 -0.000244 0.171640 -9.614950 -2.192510 6.469440 -0.000001 -171.714000 6.994590 -172.829000 -39.081100 -0.002282 -0.040193 0.172711 -0.547892 17.179600 -40.985400 0.000008 0.000006 5.879940 1.630390 -72.555500 -11.754300 -0.000006 -0.000006 -0.011082 0.279218 -5.227230
